<?xml version="1.0" encoding="UTF-8"?>
<svg width="512" height="512" viewBox="0 0 512 512" fill="none" xmlns="http://www.w3.org/2000/svg">
  <rect width="512" height="512" rx="256" fill="#0D0F23"/>
  <path d="M256 106.667C173.867 106.667 106.667 173.867 106.667 256C106.667 338.133 173.867 405.333 256 405.333C338.133 405.333 405.333 338.133 405.333 256C405.333 173.867 338.133 106.667 256 106.667Z" fill="#00B66B"/>
  <path d="M192 170.667H320V192H192V170.667Z" fill="white"/>
  <path d="M192 213.333H320V234.667H192V213.333Z" fill="white"/>
  <path d="M192 256H320V277.333H192V256Z" fill="white"/>
  <path d="M192 298.667H320V320H192V298.667Z" fill="white"/>
  <path d="M213.333 341.333H298.667V362.667H213.333V341.333Z" fill="white"/>
</svg>
