<?xml version="1.0" encoding="UTF-8"?>
<svg width="512" height="512" viewBox="0 0 512 512" fill="none" xmlns="http://www.w3.org/2000/svg">
  <rect width="512" height="512" rx="256" fill="#0D0F23"/>
  <path d="M256 106.667C173.867 106.667 106.667 173.867 106.667 256C106.667 338.133 173.867 405.333 256 405.333C338.133 405.333 405.333 338.133 405.333 256C405.333 173.867 338.133 106.667 256 106.667Z" fill="url(#paint0_linear_1_3)"/>
  <path d="M256 149.333C197.547 149.333 149.333 197.547 149.333 256C149.333 314.453 197.547 362.667 256 362.667C314.453 362.667 362.667 314.453 362.667 256C362.667 197.547 314.453 149.333 256 149.333ZM256 320C221.493 320 192 290.507 192 256C192 221.493 221.493 192 256 192C290.507 192 320 221.493 320 256C320 290.507 290.507 320 256 320Z" fill="white"/>
  <defs>
    <linearGradient id="paint0_linear_1_3" x1="106.667" y1="256" x2="405.333" y2="256" gradientUnits="userSpaceOnUse">
      <stop stop-color="#FF7A00"/>
      <stop offset="1" stop-color="#FFC700"/>
    </linearGradient>
  </defs>
</svg>
