<?xml version="1.0" encoding="UTF-8"?>
<svg width="512" height="512" viewBox="0 0 512 512" fill="none" xmlns="http://www.w3.org/2000/svg">
  <rect width="512" height="512" rx="256" fill="#0D0F23"/>
  <path d="M256 106.667C173.867 106.667 106.667 173.867 106.667 256C106.667 338.133 173.867 405.333 256 405.333C338.133 405.333 405.333 338.133 405.333 256C405.333 173.867 338.133 106.667 256 106.667Z" fill="#10CFC9"/>
  <path d="M256 149.333C197.547 149.333 149.333 197.547 149.333 256C149.333 314.453 197.547 362.667 256 362.667C314.453 362.667 362.667 314.453 362.667 256C362.667 197.547 314.453 149.333 256 149.333ZM280 298.667C280 311.68 269.013 322.667 256 322.667C242.987 322.667 232 311.68 232 298.667C232 285.653 242.987 274.667 256 274.667C269.013 274.667 280 285.653 280 298.667ZM290.667 234.667C290.667 247.68 279.68 258.667 266.667 258.667C253.653 258.667 242.667 247.68 242.667 234.667C242.667 221.653 253.653 210.667 266.667 210.667C279.68 210.667 290.667 221.653 290.667 234.667ZM224 234.667C224 247.68 213.013 258.667 200 258.667C186.987 258.667 176 247.68 176 234.667C176 221.653 186.987 210.667 200 210.667C213.013 210.667 224 221.653 224 234.667Z" fill="white"/>
</svg>
