<?xml version="1.0" encoding="UTF-8"?>
<svg width="512" height="512" viewBox="0 0 512 512" fill="none" xmlns="http://www.w3.org/2000/svg">
  <rect width="512" height="512" rx="256" fill="#0D0F23"/>
  <path d="M256 106.667C173.867 106.667 106.667 173.867 106.667 256C106.667 338.133 173.867 405.333 256 405.333C338.133 405.333 405.333 338.133 405.333 256C405.333 173.867 338.133 106.667 256 106.667Z" fill="#FF3B30"/>
  <path d="M256 170.667C208.96 170.667 170.667 208.96 170.667 256C170.667 303.04 208.96 341.333 256 341.333C303.04 341.333 341.333 303.04 341.333 256C341.333 208.96 303.04 170.667 256 170.667ZM256 298.667C232.533 298.667 213.333 279.467 213.333 256C213.333 232.533 232.533 213.333 256 213.333C279.467 213.333 298.667 232.533 298.667 256C298.667 279.467 279.467 298.667 256 298.667Z" fill="white"/>
  <path d="M256 213.333L298.667 170.667L341.333 213.333L298.667 256L256 213.333Z" fill="white"/>
  <path d="M256 298.667L213.333 256L170.667 298.667L213.333 341.333L256 298.667Z" fill="white"/>
</svg>
