<?xml version="1.0" encoding="UTF-8"?>
<svg width="512" height="512" viewBox="0 0 512 512" fill="none" xmlns="http://www.w3.org/2000/svg">
  <rect width="512" height="512" rx="256" fill="#0D0F23"/>
  <path d="M256 106.667C173.867 106.667 106.667 173.867 106.667 256C106.667 338.133 173.867 405.333 256 405.333C338.133 405.333 405.333 338.133 405.333 256C405.333 173.867 338.133 106.667 256 106.667ZM256 362.667C197.547 362.667 149.333 314.453 149.333 256C149.333 197.547 197.547 149.333 256 149.333C314.453 149.333 362.667 197.547 362.667 256C362.667 314.453 314.453 362.667 256 362.667Z" fill="url(#paint0_linear_1_2)"/>
  <path d="M256 192C226.4 192 202.667 215.733 202.667 245.333C202.667 274.933 226.4 298.667 256 298.667C285.6 298.667 309.333 274.933 309.333 245.333C309.333 215.733 285.6 192 256 192Z" fill="url(#paint1_linear_1_2)"/>
  <defs>
    <linearGradient id="paint0_linear_1_2" x1="106.667" y1="256" x2="405.333" y2="256" gradientUnits="userSpaceOnUse">
      <stop stop-color="#C200FB"/>
      <stop offset="1" stop-color="#3772FF"/>
    </linearGradient>
    <linearGradient id="paint1_linear_1_2" x1="202.667" y1="245.333" x2="309.333" y2="245.333" gradientUnits="userSpaceOnUse">
      <stop stop-color="#C200FB"/>
      <stop offset="1" stop-color="#3772FF"/>
    </linearGradient>
  </defs>
</svg>
