<?xml version="1.0" encoding="UTF-8"?>
<svg width="512" height="512" viewBox="0 0 512 512" fill="none" xmlns="http://www.w3.org/2000/svg">
  <rect width="512" height="512" rx="256" fill="#0D0F23"/>
  <path d="M256 106.667C173.867 106.667 106.667 173.867 106.667 256C106.667 338.133 173.867 405.333 256 405.333C338.133 405.333 405.333 338.133 405.333 256C405.333 173.867 338.133 106.667 256 106.667Z" fill="#3871E0"/>
  <path d="M198.4 192L256 149.333L313.6 192L256 234.667L198.4 192Z" fill="white"/>
  <path d="M313.6 234.667L371.2 277.333L313.6 320L256 277.333L313.6 234.667Z" fill="white"/>
  <path d="M198.4 277.333L256 234.667L313.6 277.333L256 320L198.4 277.333Z" fill="white"/>
  <path d="M198.4 277.333L140.8 320L198.4 362.667L256 320L198.4 277.333Z" fill="white"/>
</svg>
