<?xml version="1.0" encoding="UTF-8"?>
<svg width="512" height="512" viewBox="0 0 512 512" fill="none" xmlns="http://www.w3.org/2000/svg">
  <rect width="512" height="512" rx="256" fill="#0D0F23"/>
  <path d="M256 106.667C173.867 106.667 106.667 173.867 106.667 256C106.667 338.133 173.867 405.333 256 405.333C338.133 405.333 405.333 338.133 405.333 256C405.333 173.867 338.133 106.667 256 106.667Z" fill="#7B61FF"/>
  <path d="M192 170.667L256 213.333L320 170.667L256 128L192 170.667Z" fill="white"/>
  <path d="M192 256L256 298.667L320 256L256 213.333L192 256Z" fill="white"/>
  <path d="M192 341.333L256 384L320 341.333L256 298.667L192 341.333Z" fill="white"/>
  <path d="M149.333 213.333L213.333 256L149.333 298.667L85.3333 256L149.333 213.333Z" fill="white"/>
  <path d="M362.667 213.333L426.667 256L362.667 298.667L298.667 256L362.667 213.333Z" fill="white"/>
</svg>
